<?xml version="1.0" encoding="UTF-8" ?>
<svg version="1.1" viewBox="0 0 16 16" width="32" height="32" xmlns="http://www.w3.org/2000/svg" shape-rendering="crispEdges">
<rect x="3" y="2" width="3" height="4" fill="#FFFFFF" />
<rect x="10" y="2" width="3" height="4" fill="#FFFFFF" />
<rect x="2" y="3" width="1" height="11" fill="#FFFFFF" />
<rect x="6" y="3" width="4" height="4" fill="#FFFFFF" />
<rect x="13" y="3" width="1" height="11" fill="#FFFFFF" />
<rect x="1" y="4" width="1" height="9" fill="#FFFFFF" />
<rect x="14" y="4" width="1" height="9" fill="#FFFFFF" />
<rect x="0" y="6" width="1" height="6" fill="#FFFFFF" />
<rect x="3" y="6" width="1" height="1" fill="#FFFFFF" />
<rect x="12" y="6" width="1" height="1" fill="#FFFFFF" />
<rect x="15" y="6" width="1" height="6" fill="#FFFFFF" />
<rect x="7" y="7" width="2" height="5" fill="#FFFFFF" />
<rect x="3" y="9" width="1" height="2" fill="#FFFFFF" />
<rect x="6" y="9" width="1" height="3" fill="#FFFFFF" />
<rect x="9" y="9" width="1" height="3" fill="#FFFFFF" />
<rect x="12" y="9" width="1" height="2" fill="#FFFFFF" />
<rect x="4" y="10" width="2" height="2" fill="#FFFFFF" />
<rect x="10" y="10" width="2" height="2" fill="#FFFFFF" />
<rect x="3" y="12" width="1" height="2" fill="#FFFFFF" />
<rect x="12" y="12" width="1" height="2" fill="#FFFFFF" />
<rect x="4" y="13" width="1" height="1" fill="#FFFFFF" />
<rect x="11" y="13" width="1" height="1" fill="#FFFFFF" />
</svg>