<?xml version="1.0" encoding="UTF-8" ?>
<svg version="1.1" viewBox="0 0 5120 5120" width="5120" height="5120" xmlns="http://www.w3.org/2000/svg" shape-rendering="crispEdges">
<rect x="960" y="640" width="960" height="1280" fill="#FFFFFF" />
<rect x="3200" y="640" width="960" height="1280" fill="#FFFFFF" />
<rect x="640" y="960" width="320" height="3520" fill="#FFFFFF" />
<rect x="1920" y="960" width="1280" height="1280" fill="#FFFFFF" />
<rect x="4160" y="960" width="320" height="3520" fill="#FFFFFF" />
<rect x="320" y="1280" width="320" height="2880" fill="#FFFFFF" />
<rect x="4480" y="1280" width="320" height="2880" fill="#FFFFFF" />
<rect x="0" y="1920" width="320" height="1920" fill="#FFFFFF" />
<rect x="960" y="1920" width="320" height="320" fill="#FFFFFF" />
<rect x="3840" y="1920" width="320" height="320" fill="#FFFFFF" />
<rect x="4800" y="1920" width="320" height="1920" fill="#FFFFFF" />
<rect x="2240" y="2240" width="640" height="1600" fill="#FFFFFF" />
<rect x="960" y="2880" width="320" height="640" fill="#FFFFFF" />
<rect x="1920" y="2880" width="320" height="960" fill="#FFFFFF" />
<rect x="2880" y="2880" width="320" height="960" fill="#FFFFFF" />
<rect x="3840" y="2880" width="320" height="640" fill="#FFFFFF" />
<rect x="1280" y="3200" width="640" height="640" fill="#FFFFFF" />
<rect x="3200" y="3200" width="640" height="640" fill="#FFFFFF" />
<rect x="960" y="3840" width="320" height="640" fill="#FFFFFF" />
<rect x="3840" y="3840" width="320" height="640" fill="#FFFFFF" />
<rect x="1280" y="4160" width="320" height="320" fill="#FFFFFF" />
<rect x="3520" y="4160" width="320" height="320" fill="#FFFFFF" />
</svg>