<?xml version="1.0" encoding="UTF-8" ?>
<svg version="1.1" viewBox="0 0 5120 5120" width="5120" height="5120" xmlns="http://www.w3.org/2000/svg" shape-rendering="crispEdges">
<rect x="640" y="0" width="3840" height="640" fill="#FFFFFF" />
<rect x="320" y="320" width="320" height="4480" fill="#FFFFFF" />
<rect x="4480" y="320" width="320" height="4480" fill="#FFFFFF" />
<rect x="0" y="640" width="320" height="3840" fill="#FFFFFF" />
<rect x="640" y="640" width="320" height="320" fill="#FFFFFF" />
<rect x="4160" y="640" width="320" height="320" fill="#FFFFFF" />
<rect x="4800" y="640" width="320" height="3840" fill="#FFFFFF" />
<rect x="3520" y="960" width="640" height="640" fill="#FFFFFF" />
<rect x="1920" y="1600" width="1280" height="640" fill="#FFFFFF" />
<rect x="1600" y="1920" width="320" height="1280" fill="#FFFFFF" />
<rect x="3200" y="1920" width="320" height="1280" fill="#FFFFFF" />
<rect x="1920" y="2240" width="320" height="1280" fill="#FFFFFF" />
<rect x="2880" y="2240" width="320" height="1280" fill="#FFFFFF" />
<rect x="2240" y="2880" width="640" height="640" fill="#FFFFFF" />
<rect x="640" y="4160" width="320" height="960" fill="#FFFFFF" />
<rect x="4160" y="4160" width="320" height="960" fill="#FFFFFF" />
<rect x="960" y="4480" width="3200" height="640" fill="#FFFFFF" />
</svg>