<?xml version="1.0" encoding="UTF-8" ?>
<svg version="1.1" viewBox="0 0 16 16" width="32" height="32" xmlns="http://www.w3.org/2000/svg" shape-rendering="crispEdges">
<rect x="2" y="0" width="12" height="2" fill="#FFFFFF" />
<rect x="1" y="1" width="1" height="14" fill="#FFFFFF" />
<rect x="14" y="1" width="1" height="14" fill="#FFFFFF" />
<rect x="0" y="2" width="1" height="12" fill="#FFFFFF" />
<rect x="2" y="2" width="1" height="1" fill="#FFFFFF" />
<rect x="13" y="2" width="1" height="1" fill="#FFFFFF" />
<rect x="15" y="2" width="1" height="12" fill="#FFFFFF" />
<rect x="11" y="3" width="2" height="2" fill="#FFFFFF" />
<rect x="6" y="5" width="4" height="2" fill="#FFFFFF" />
<rect x="5" y="6" width="1" height="4" fill="#FFFFFF" />
<rect x="10" y="6" width="1" height="4" fill="#FFFFFF" />
<rect x="6" y="7" width="1" height="4" fill="#FFFFFF" />
<rect x="9" y="7" width="1" height="4" fill="#FFFFFF" />
<rect x="7" y="9" width="2" height="2" fill="#FFFFFF" />
<rect x="2" y="13" width="1" height="3" fill="#FFFFFF" />
<rect x="13" y="13" width="1" height="3" fill="#FFFFFF" />
<rect x="3" y="14" width="10" height="2" fill="#FFFFFF" />
</svg>